<?xml version="1.0" encoding="UTF-8"?>
<svg id="Layer_2" data-name="Layer 2" xmlns="http://www.w3.org/2000/svg" viewBox="0 0 1940.88 858.75">
  <defs>
    <style>
      .cls-1 {
        fill: #00aeef;
      }

      .cls-2 {
        fill: #fbb040;
      }

      .cls-3 {
        fill: #27aae1;
      }

      .cls-4 {
        fill: #f7941d;
      }

      .cls-5 {
        fill: #1c75bc;
      }
    </style>
  </defs>
  <g id="Layer_1-2" data-name="Layer 1">
    <g>
      <path class="cls-2" d="m560.45,621.33c200.15,2.08,248.07-115.82,249.08-230.24l-724.8-7.53c-1.01,114.41,275.57,235.68,475.72,237.76Z"/>
      <polygon class="cls-1" points="120.96 459.11 472.85 459.11 511.31 483.46 147.32 483.46 120.96 459.11"/>
      <path class="cls-3" d="m1049.68,293.99l-4.59,89.58h205.58s63.15-114.84,63.15-114.84c6.43-1.85,15.06-4.25,25.27-6.89,326.9-84.57,598.33,22.6,601.77,9.19,2.59-10.1-151.62-70.12-358.31-107.95-96.2-17.61-178.38-25.77-238.87-29.86L1277.06,0h-301.05s-415.56,0-415.56,0c163.07,98,326.15,196,489.22,293.99Zm149.54-189.7c0-21.18,17.17-38.36,38.36-38.36,21.18,0,38.36,17.17,38.36,38.36,0,21.18-17.17,38.36-38.36,38.36-21.18,0-38.36-17.17-38.36-38.36Z"/>
      <polygon class="cls-1" points="218.77 530.18 539.01 530.18 576.22 554.54 268.97 554.54 218.77 530.18"/>
      <polygon class="cls-5" points="560.45 0 976.01 246.06 984.12 0 560.45 0"/>
      <path class="cls-5" d="m1134.8,569.47c244.63-199.91,42.13-306.87-51.9-421.93L115.51,821.05c94.02,115.06,774.66-51.67,1019.29-251.58Z"/>
      <path class="cls-4" d="m1082.91,147.54L0,136.3c-1.58,178.37,425.48,373.94,737.51,377.18,275.43,2.86,346.43-161.13,397.78-309.71l-52.38-56.22Z"/>
      <polygon class="cls-5" points="701.48 265.29 65.91 265.29 51.64 250.09 42.14 238.82 33.05 226.83 661.54 226.83 701.48 265.29"/>
      <polygon class="cls-5" points="874.58 402.8 260.04 394.87 225.92 377.72 206.9 367.4 822.66 368.78 874.58 402.8"/>
    </g>
  </g>
</svg>