<?xml version="1.0" encoding="UTF-8"?>
<svg id="Layer_2" data-name="Layer 2" xmlns="http://www.w3.org/2000/svg" viewBox="0 0 1404.49 621.43">
  <defs>
    <style>
      .cls-1 {
        fill: #be1e2d;
      }

      .cls-2 {
        fill: #fbb040;
      }

      .cls-3 {
        fill: #f7941d;
      }

      .cls-4 {
        fill: #ef4136;
      }
    </style>
  </defs>
  <g id="Layer_1-2" data-name="Layer 1">
    <g>
      <path class="cls-2" d="m405.56,449.62c144.84,1.5,179.51-83.81,180.25-166.61l-524.5-5.45c-.73,82.79,199.41,170.55,344.25,172.05Z"/>
      <polygon class="cls-4" points="87.53 332.23 342.17 332.23 370 349.85 106.61 349.85 87.53 332.23"/>
      <path class="cls-4" d="m759.59,212.75l-3.32,64.82h148.77s45.7-83.1,45.7-83.1c4.66-1.34,10.89-3.07,18.28-4.99,236.56-61.2,432.97,16.35,435.46,6.65,1.88-7.31-109.72-50.74-259.28-78.12-69.61-12.74-129.08-18.65-172.86-21.61L924.13,0h-217.85s-300.71,0-300.71,0c118.01,70.92,236.01,141.83,354.02,212.75Zm108.22-137.27c0-15.33,12.43-27.76,27.76-27.76,15.33,0,27.76,12.43,27.76,27.76s-12.43,27.76-27.76,27.76c-15.33,0-27.76-12.43-27.76-27.76Z"/>
      <polygon class="cls-4" points="158.31 383.66 390.05 383.66 416.98 401.28 194.64 401.28 158.31 383.66"/>
      <polygon class="cls-1" points="405.56 0 706.28 178.06 712.15 0 405.56 0"/>
      <path class="cls-1" d="m821.19,412.09c177.03-144.66,30.49-222.06-37.55-305.32L83.59,594.14c68.04,83.26,560.57-37.39,737.6-182.05Z"/>
      <path class="cls-3" d="m783.63,106.77L0,98.63c-1.15,129.07,307.89,270.6,533.69,272.94,199.31,2.07,250.69-116.6,287.85-224.12l-37.91-40.68Z"/>
      <polygon class="cls-1" points="507.62 191.97 47.7 191.97 37.37 180.97 30.49 172.82 23.92 164.14 478.72 164.14 507.62 191.97"/>
      <polygon class="cls-1" points="632.88 291.48 188.17 285.75 163.49 273.33 149.72 265.87 595.31 266.87 632.88 291.48"/>
    </g>
  </g>
</svg>